<svg xmlns="http://www.w3.org/2000/svg" width="1600" height="1000" viewBox="0 0 1600 1000">
  <defs>
    <linearGradient id="g" x1="0" y1="0" x2="1" y2="1">
      <stop offset="0" stop-color="#211e1a"/><stop offset="0.5" stop-color="#2c2823"/><stop offset="1" stop-color="#151310"/>
    </linearGradient>
    <radialGradient id="v" cx="0.35" cy="0.4" r="0.9">
      <stop offset="0" stop-color="#3a352d" stop-opacity="0.6"/><stop offset="1" stop-color="#151310" stop-opacity="0"/>
    </radialGradient>
  </defs>
  <rect width="1600" height="1000" fill="url(#g)"/>
  <rect width="1600" height="1000" fill="url(#v)"/>
  <g fill="none" stroke="#a98b63" stroke-opacity="0.22" stroke-width="2">
    <rect x="980" y="430" width="150" height="420"/>
    <rect x="1130" y="320" width="200" height="530"/>
    <rect x="1330" y="500" width="150" height="350"/>
    <rect x="880" y="560" width="100" height="290"/>
  </g>
  <g fill="#a98b63" fill-opacity="0.12">
    <rect x="1150" y="350" width="30" height="40"/><rect x="1200" y="350" width="30" height="40"/><rect x="1250" y="350" width="30" height="40"/>
    <rect x="1150" y="420" width="30" height="40"/><rect x="1200" y="420" width="30" height="40"/><rect x="1250" y="420" width="30" height="40"/>
    <rect x="1000" y="470" width="25" height="35"/><rect x="1045" y="470" width="25" height="35"/><rect x="1090" y="470" width="25" height="35"/>
  </g>
</svg>
